# xmcd CD database file
#
# Track frame offsets:
#	150
#	46415
#	130304
#	152140
#	175813
#	226137
#
# Disc length: 3633 seconds
#
# Revision: 0
# Processed by: cddbd v1.5.2PL0 Copyright (c) Steve Scherf et al.
# Submitted via: CDex 1.70beta2
#
DISCID=450e2f06
DTITLE=Spontaneous Music Ensemble - Quintessence
DYEAR=1973
DGENRE=Jazz
TTITLE0=Ten Minutes
TTITLE1=Rambunctious 1
TTITLE2=Rambunctious 2
TTITLE3=Daa-Oom (Trio Version)
TTITLE4=Corsop
TTITLE5=Daa-Oom (Duo Version)
EXTD=YEAR: 1973
EXTT0=
EXTT1=
EXTT2=
EXTT3=
EXTT4=
EXTT5=
PLAYORDER=
